<?xml version="1.0" standalone="no"?>
<!DOCTYPE svg PUBLIC "-//W3C//DTD SVG 20010904//EN"
 "http://www.w3.org/TR/2001/REC-SVG-20010904/DTD/svg10.dtd">
<svg version="1.0" xmlns="http://www.w3.org/2000/svg"
 width="414.000000pt" height="414.000000pt" viewBox="0 0 414.000000 414.000000"
 preserveAspectRatio="xMidYMid meet">
<metadata>
Created by potrace 1.11, written by Peter Selinger 2001-2013
</metadata>
<g transform="translate(0.000000,414.000000) scale(0.100000,-0.100000)"
fill="#000000" stroke="none">
<path d="M1908 4136 c-1 -2 -33 -6 -70 -10 -56 -5 -158 -23 -233 -40 -11 -2
-41 -9 -66 -15 -154 -35 -435 -159 -584 -257 -528 -347 -868 -890 -942 -1504
-10 -82 -10 -372 -1 -465 9 -80 27 -195 33 -205 2 -4 7 -20 9 -37 22 -121 102
-339 182 -491 318 -607 913 -1016 1599 -1099 79 -10 372 -10 460 -1 694 74
1317 510 1629 1140 145 293 209 565 210 893 1 201 -4 269 -29 405 -109 582
-472 1099 -986 1405 -185 110 -495 226 -670 250 -24 3 -55 8 -69 11 -70 13
-110 16 -282 19 -102 2 -188 2 -190 1z"/>
</g>
</svg>
